PathFileType	4	(X/Y/Z)	D:\TRACE\v60_Jaco2_6-2-23\ArmBodyNoDRS_DMP_1-platform.trc
DataRate	CameraRate	NumFrames	NumMarkers	Units	OrigDataRate	OrigDataStartFrame	OrigNumFrames
100.00	100.00	      60	5	mm	100.00	3987	      5315
Frame#	Time	Left_Front			Right_Front			Left_Aft			Right_Aft			Post			
		X1	Y1	Z1	X2	Y2	Z2	X3	Y3	Z3	X4	Y4	Z4	X5	Y5	Z5	

3987	39.860				780.27332	9.77942	-632.74341	-719.52301	6.76288	481.00824	698.09869	8.98355	583.33826	3.08530	1307.52124	-965.92810	
3988	39.870				780.15601	9.79039	-632.87305	-719.27197	6.38169	481.10062	698.10809	8.96159	583.32147	3.16701	1307.48608	-965.94330	
3989	39.880				780.28613	9.85375	-632.72845	-719.50708	6.79879	481.05893	697.24341	8.10134	583.06067	3.20966	1307.44336	-965.86670	
3990	39.890				780.28235	9.87183	-632.76532	-719.13110	6.38884	481.14050	697.66571	8.42366	583.15784	3.15001	1307.52051	-965.93701	
3991	39.900				780.23273	9.82629	-632.82178	-719.12708	6.34865	481.13229	697.58209	8.42199	583.10553	3.09655	1307.55505	-965.93414	
3992	39.910				780.24878	9.82512	-632.78674	-719.18921	6.31420	481.06635	697.51221	8.39051	583.05304	3.03752	1307.52515	-966.00897	
3993	39.920				780.25140	9.77598	-632.74188	-719.25623	6.35251	481.11105	697.06171	8.00042	582.98572	3.04825	1307.44617	-965.98743	
3994	39.930				780.28656	9.80392	-632.72986	-719.52557	6.79463	481.03864	698.12598	8.93842	583.31903	3.27098	1307.45923	-965.96796	
3995	39.940				780.27368	9.83352	-632.76373	-719.43347	6.77504	481.13458	698.12317	8.91974	583.38116	3.23077	1307.54736	-966.04999	
3996	39.950				780.24249	9.81388	-632.81854	-719.40991	6.75902	481.09891	698.19049	8.95449	583.35388	3.05979	1307.57080	-966.18616	
3997	39.960				780.24451	9.84717	-632.77478	-719.46136	6.76861	481.02585	698.11285	8.97271	583.34143	3.07800	1307.55322	-966.16742	
3998	39.970				780.31360	9.78167	-632.75409	-719.20612	6.31569	481.11731	698.17218	8.92533	583.30048	3.06407	1307.51782	-966.14825	
3999	39.980				780.27155	9.75198	-632.73840	-719.55048	6.73461	481.04489	698.12189	8.91769	583.33594	3.05839	1307.48474	-966.04590	
4000	39.990				780.30078	9.74036	-632.72522	-719.16882	6.27494	481.24271	698.17133	8.91831	583.37451	3.25030	1307.45410	-965.90509	
4001	40.000				780.30640	9.78303	-632.75409	-719.13098	6.35016	481.20490	698.08368	8.97755	583.40039	3.27597	1307.49036	-965.84027	
4002	40.010				780.29718	9.82818	-632.79187	-719.17267	6.41008	481.12466	698.12805	8.98551	583.31470	3.18131	1307.53503	-965.89996	
4003	40.020				780.30499	9.82798	-632.74341	-719.50519	6.77420	481.02747	698.10016	8.96986	583.33313	3.08261	1307.50305	-965.89526	
4004	40.030				780.29956	9.77840	-632.80334	-719.22583	6.36709	481.09622	698.15240	8.93622	583.33923	3.09462	1307.45593	-965.89685	
4005	40.040				780.32501	9.77068	-632.65887	-719.48761	6.74610	481.08237	698.12610	8.92863	583.34406	3.14439	1307.44104	-965.87573	
4006	40.050				780.22742	9.80189	-632.82281	-719.12286	6.28453	481.23108	698.18640	8.92855	583.40112	3.13272	1307.49902	-965.84363	
4007	40.060				780.04468	9.90726	-632.98138	-719.46051	6.80398	481.08780	698.09674	8.96121	583.34888	3.11050	1307.51904	-965.91827	
4008	40.070				780.05035	9.88999	-633.05402	-719.49927	6.79701	480.99170	698.15649	8.93358	583.32129	3.00810	1307.56458	-966.01813	
4009	40.080				780.12811	9.94668	-633.00909	-719.22400	6.36817	481.08658	698.09509	8.93505	583.32971	2.97552	1307.52954	-966.02808	
4010	40.090				780.09998	9.85122	-632.91345	-719.50177	6.76045	481.05301	698.13025	8.93313	583.34296	3.00743	1307.49243	-966.00946	
4011	40.100				780.18524	9.84313	-632.83514	-719.18030	6.32863	481.20709	698.13922	8.95729	583.37762	3.13035	1307.47705	-965.95398	
4012	40.110				780.16852	9.81579	-632.88123	-719.17444	6.34968	481.14749	698.13025	8.96600	583.34290	3.07544	1307.43872	-966.06024	
4013	40.120				780.01276	9.89482	-632.98480	-719.48901	6.76328	481.01007	698.03735	8.97955	583.33667	2.94082	1307.51123	-966.10522	
4014	40.130				780.09021	9.83020	-632.99371	-719.47473	6.80031	481.04727	698.15015	8.96635	583.34021	3.06606	1307.53577	-966.08331	
4015	40.140				780.14508	9.47630	-632.89276	-719.45587	6.72492	481.05246	698.12848	8.96044	583.34393	3.03779	1307.49414	-965.99268	
4016	40.150				780.24817	9.32147	-632.91248	-719.19305	6.21095	481.16211	698.08148	9.02436	583.31525	3.09688	1307.41699	-965.94385	
4017	40.160				780.07190	9.69161	-632.86896	-719.20477	6.27726	481.14917	698.06537	9.02431	583.33820	3.31490	1307.32593	-965.89105	
4018	40.170				780.01770	9.66922	-632.97064	-719.18140	6.26164	481.14328	698.12402	8.90411	583.35187	3.23158	1307.40222	-966.01501	
4019	40.180				780.08801	9.65901	-632.92395	-719.39258	6.73419	480.76077	698.08875	8.97406	583.37408	2.96987	1307.56543	-966.12476	
4020	40.190				780.14905	9.61755	-632.86359	-719.40240	6.81274	480.86469	698.19879	8.92145	583.33417	3.07098	1307.63074	-966.12482	
4021	40.200				780.15131	9.75289	-632.82550	-719.59515	6.94603	480.89740	698.14111	8.95953	583.32971	3.10178	1307.53857	-966.05743	
4022	40.210				780.01746	9.62138	-632.90051	-719.49030	6.68780	480.89233	698.04095	9.02525	583.32495	3.20503	1307.44922	-965.97955	
4023	40.220				779.98529	9.42300	-632.87122	-719.69196	6.91471	480.91696	698.05707	8.95413	583.35406	3.14958	1307.31848	-965.99615	
4024	40.230				780.07129	9.59287	-632.92590	-719.45197	6.82823	480.90381	698.14783	8.93444	583.35449	3.15943	1307.44580	-965.95917	
4025	40.240				780.11951	9.76079	-632.85760	-719.40625	6.88159	480.88962	698.11346	9.01477	583.37494	3.12954	1307.57886	-966.06360	
4026	40.250				780.13824	9.84490	-632.87103	-719.40381	6.85638	480.85135	698.10852	9.04015	583.33301	3.07407	1307.56628	-966.04724	
4027	40.260				780.04041	9.60334	-632.87054	-719.62683	6.95952	480.89594	698.04712	9.01060	583.31378	3.08874	1307.50879	-966.01129	
4028	40.270				779.94055	9.48851	-632.93176	-719.53918	6.72090	480.87186	698.05109	8.98870	583.32813	3.10198	1307.39795	-965.98419	
4029	40.280				780.07098	9.65033	-632.83960	-719.64380	6.94679	480.93402	698.11255	8.94608	583.33673	3.16307	1307.37329	-966.01166	
4030	40.290				780.12488	9.75181	-632.86841	-719.58972	7.00837	480.87109	698.14868	8.95723	583.36121	3.25279	1307.50024	-966.04626	
4031	40.300				780.10980	9.74516	-632.86169	-719.36426	6.82702	480.89700	698.08527	9.06900	583.36725	3.11871	1307.62341	-966.14270	
4032	40.310				780.02216	9.68824	-632.93188	-719.47430	6.81445	480.84723	698.08374	9.01173	583.32935	3.07257	1307.55469	-966.16388	
4033	40.320				780.00696	9.64768	-632.93744	-719.66370	6.92559	480.86459	698.07245	9.00222	583.32220	3.08763	1307.45630	-966.03149	
4034	40.330				780.08929	9.57331	-632.84821	-719.54358	6.77412	480.88370	698.10297	8.92678	583.36499	3.16372	1307.36609	-965.99805	
4035	40.340				780.12433	9.60243	-632.79816	-719.45099	6.76868	480.95786	698.11810	8.97352	583.37238	3.20682	1307.45410	-965.94183	
4036	40.350				780.16626	9.66469	-632.83771	-719.39191	6.81694	480.90689	698.12238	9.02332	583.40021	3.23866	1307.52954	-965.99017	
4037	40.360				780.12225	9.69066	-632.85999	-719.57562	6.98047	480.87354	698.09631	9.05334	583.35620	3.16405	1307.55188	-965.98828	
4038	40.370				780.03662	9.64408	-632.95862	-719.49701	6.82023	480.84766	698.10413	8.96628	583.30585	3.09348	1307.47839	-965.98199	
4039	40.380				780.04004	9.57511	-632.89227	-719.53741	6.73552	480.87372	698.09479	8.93281	583.32849	3.07666	1307.43677	-965.93976	
4040	40.390				780.00031	9.56731	-632.89844	-719.50482	6.73533	480.91336	698.10858	8.96295	583.37476	3.24066	1307.46582	-965.91833	
4041	40.400				780.14221	9.67979	-632.79926	-719.57727	6.95632	480.90161	698.09808	9.00166	583.37347	3.26038	1307.44128	-965.94427	
4042	40.410				780.17480	9.73236	-632.81787	-719.56097	6.99596	480.89838	698.10352	9.01754	583.36902	3.16090	1307.55884	-966.00012	
4043	40.420				780.06158	9.70093	-632.95197	-719.58459	6.97124	480.84756	698.06470	9.00164	583.34497	3.05479	1307.56067	-966.03912	
4044	40.430				780.02063	9.60344	-632.93066	-719.62836	6.91793	480.87582	698.07526	8.97194	583.31897	3.06461	1307.48499	-965.97778	
4045	40.440				780.01288	9.54395	-632.94348	-719.64972	6.90258	480.90738	698.07544	8.96448	583.36340	3.13224	1307.52026	-965.98096	
4046	40.450				780.08795	9.57769	-632.77856	-719.59808	6.93079	480.89938	698.09912	9.00410	583.35492	3.16512	1307.45715	-965.97461	
